<mxfile host="65bd71144e">
    <diagram id="QjIuPqYrj1B6ECJPbBiX" name="Page-1">
        <mxGraphModel dx="3719" dy="1823" grid="1" gridSize="10" guides="1" tooltips="1" connect="1" arrows="1" fold="1" page="1" pageScale="1" pageWidth="827" pageHeight="1169" math="0" shadow="1">
            <root>
                <mxCell id="0"/>
                <mxCell id="1" parent="0"/>
                <mxCell id="63" value="" style="edgeStyle=none;html=1;entryX=0.5;entryY=0;entryDx=0;entryDy=0;strokeWidth=3;" parent="1" source="23" target="34" edge="1">
                    <mxGeometry relative="1" as="geometry">
                        <mxPoint x="-1202.5" y="-1050" as="targetPoint"/>
                        <Array as="points">
                            <mxPoint x="-1114" y="-1050"/>
                        </Array>
                    </mxGeometry>
                </mxCell>
                <mxCell id="23" value="ui.py (интерфейс пользователя)" style="rounded=1;whiteSpace=wrap;html=1;shadow=1;labelBackgroundColor=none;labelBorderColor=none;fontSize=13;strokeWidth=2;" parent="1" vertex="1">
                    <mxGeometry x="-1567.5" y="-1100" width="230" height="100" as="geometry"/>
                </mxCell>
                <mxCell id="58" value="" style="edgeStyle=none;html=1;strokeWidth=3;" parent="1" source="24" target="28" edge="1">
                    <mxGeometry relative="1" as="geometry"/>
                </mxCell>
                <mxCell id="59" value="" style="edgeStyle=none;html=1;strokeWidth=3;" parent="1" source="24" target="27" edge="1">
                    <mxGeometry relative="1" as="geometry"/>
                </mxCell>
                <mxCell id="65" value="" style="edgeStyle=none;html=1;fillColor=#0050ef;strokeColor=#001DBC;" parent="1" source="24" edge="1">
                    <mxGeometry relative="1" as="geometry">
                        <mxPoint x="-1452" y="-1000" as="targetPoint"/>
                    </mxGeometry>
                </mxCell>
                <mxCell id="24" value="&lt;font style=&quot;font-size: 16px&quot;&gt;controller.py&lt;/font&gt;" style="rounded=1;whiteSpace=wrap;html=1;shadow=1;labelBackgroundColor=none;labelBorderColor=none;fontSize=13;strokeWidth=3;perimeterSpacing=1;" parent="1" vertex="1">
                    <mxGeometry x="-1560" y="-930" width="215" height="90" as="geometry"/>
                </mxCell>
                <mxCell id="38" value="" style="edgeStyle=none;html=1;strokeWidth=3;" parent="1" source="25" target="23" edge="1">
                    <mxGeometry relative="1" as="geometry"/>
                </mxCell>
                <mxCell id="25" value="&lt;font style=&quot;font-size: 15px&quot;&gt;main.py (запуск приложения)&lt;/font&gt;" style="rounded=1;whiteSpace=wrap;html=1;shadow=1;labelBackgroundColor=none;labelBorderColor=none;fontSize=13;strokeWidth=4;" parent="1" vertex="1">
                    <mxGeometry x="-1830" y="-1100" width="200" height="100" as="geometry"/>
                </mxCell>
                <mxCell id="60" value="" style="edgeStyle=none;html=1;strokeWidth=4;" parent="1" source="27" target="30" edge="1">
                    <mxGeometry relative="1" as="geometry"/>
                </mxCell>
                <mxCell id="67" value="" style="edgeStyle=none;html=1;entryX=-0.013;entryY=0.183;entryDx=0;entryDy=0;exitX=1.009;exitY=0.127;exitDx=0;exitDy=0;exitPerimeter=0;entryPerimeter=0;fillColor=#0050ef;strokeColor=#001DBC;" parent="1" source="27" target="24" edge="1">
                    <mxGeometry relative="1" as="geometry">
                        <Array as="points"/>
                    </mxGeometry>
                </mxCell>
                <mxCell id="27" value="&lt;font style=&quot;font-size: 15px&quot;&gt;rational.py (калькулятор рациональных чисел)&lt;/font&gt;" style="rounded=1;whiteSpace=wrap;html=1;shadow=1;labelBackgroundColor=none;labelBorderColor=none;fontSize=13;strokeWidth=4;" parent="1" vertex="1">
                    <mxGeometry x="-1890" y="-923.5" width="240" height="90" as="geometry"/>
                </mxCell>
                <mxCell id="61" value="" style="edgeStyle=none;html=1;strokeWidth=3;" parent="1" source="28" target="30" edge="1">
                    <mxGeometry relative="1" as="geometry"/>
                </mxCell>
                <mxCell id="71" value="" style="edgeStyle=none;html=1;fillColor=#0050ef;strokeColor=#001DBC;" parent="1" edge="1">
                    <mxGeometry relative="1" as="geometry">
                        <mxPoint x="-1365" y="-740" as="sourcePoint"/>
                        <mxPoint x="-1365" y="-840" as="targetPoint"/>
                        <Array as="points">
                            <mxPoint x="-1365" y="-770"/>
                        </Array>
                    </mxGeometry>
                </mxCell>
                <mxCell id="28" value="&lt;font style=&quot;font-size: 15px&quot;&gt;complex.py (калькулятор комплексного числа)&lt;/font&gt;" style="rounded=1;whiteSpace=wrap;html=1;shadow=1;labelBackgroundColor=none;labelBorderColor=none;fontSize=13;strokeWidth=3;" parent="1" vertex="1">
                    <mxGeometry x="-1577.5" y="-750" width="250" height="90" as="geometry"/>
                </mxCell>
                <mxCell id="35" value="" style="edgeStyle=none;html=1;" parent="1" target="34" edge="1">
                    <mxGeometry relative="1" as="geometry"/>
                </mxCell>
                <mxCell id="30" value="&lt;font style=&quot;font-size: 15px&quot;&gt;logs.py (логирование данных)&lt;/font&gt;" style="rounded=1;whiteSpace=wrap;html=1;shadow=1;labelBackgroundColor=none;labelBorderColor=none;fontSize=13;strokeWidth=4;" parent="1" vertex="1">
                    <mxGeometry x="-1865" y="-750" width="190" height="90" as="geometry"/>
                </mxCell>
                <mxCell id="42" value="" style="edgeStyle=none;html=1;strokeWidth=3;" parent="1" source="34" target="24" edge="1">
                    <mxGeometry relative="1" as="geometry"/>
                </mxCell>
                <mxCell id="34" value="&lt;font style=&quot;font-size: 14px&quot;&gt;check_number.py (проверка ввода)&lt;/font&gt;" style="whiteSpace=wrap;html=1;fontSize=13;rounded=1;shadow=1;labelBackgroundColor=none;labelBorderColor=none;strokeWidth=3;" parent="1" vertex="1">
                    <mxGeometry x="-1210" y="-923.5" width="192.5" height="77" as="geometry"/>
                </mxCell>
                <mxCell id="66" value="out" style="text;html=1;align=center;verticalAlign=middle;resizable=0;points=[];autosize=1;strokeColor=none;fillColor=none;" parent="1" vertex="1">
                    <mxGeometry x="-1445" y="-980" width="30" height="20" as="geometry"/>
                </mxCell>
            </root>
        </mxGraphModel>
    </diagram>
</mxfile>